<svg xmlns="http://www.w3.org/2000/svg" id="Pants_Category" x="0" y="0" version="1.1" viewBox="0 0 905 448" xml:space="preserve">
  <style>
    .st0{fill:#c8bdb7}.st1{fill:#fff}
  </style>
    <path d="M396.8 52.8h1.1v2.3h-1.1zm1.1-4.3h-1.1v-4.3h1.1v4.3zm0-8.6h-1.1v-4.3h1.1v4.3zm0-8.6h-1.1V27h1.1v4.3zm-1.1-10.9h1.1v2.3h-1.1zm37.1 406h1.1v2.3h-1.1zm1.2-4.3H434v-4.3h1.1v4.3zm0-8.6H434v-4.3h1.1v4.3zm0-8.6H434v-4.3h1.1v4.3zm-1.2-10.9h1.1v2.3h-1.1zm-48.8 30.3h1.1v2.3h-1.1zm1.2-4.3h-1.1v-4.3h1.1v4.3zm0-8.6h-1.1v-4.3h1.1v4.3zm0-8.6h-1.1v-4.3h1.1v4.3zm-1.2-10.9h1.1v2.3h-1.1zM516.2 52.8h1.1v2.3h-1.1zm1.2-4.3h-1.1v-4.3h1.1v4.3zm0-8.6h-1.1v-4.3h1.1v4.3zm0-8.6h-1.1V27h1.1v4.3zm-1.2-10.9h1.1v2.3h-1.1zm-57.7 115h2.3v1.1h-2.3zm88.4 1.1h-4.8v-1.1h4.8v1.1zm-9.6 0h-4.8v-1.1h4.8v1.1zm-9.6 0H523v-1.1h4.8v1.1zm-9.5 0h-4.8v-1.1h4.8v1.1zm-9.6 0h-4.8v-1.1h4.8v1.1zm-9.5 0h-4.8v-1.1h4.8v1.1zm-9.6 0h-4.8v-1.1h4.8v1.1zm-9.5 0h-4.8v-1.1h4.8v1.1zm-9.6 0h-4.8v-1.1h4.8v1.1zm81.2-1.1h2.3v1.1h-2.3zm-34.8-68.7h2.3v1.1h-2.3zm29.6 1.1h-4.6v-1.1h4.6v1.1zm-9.1 0h-4.6v-1.1h4.6v1.1zm-9.1 0h-4.6v-1.1h4.6v1.1zm22.7-1.1h2.3v1.1h-2.3zm-190.7 0h2.3v1.1h-2.3zm29.7 1.1h-4.6v-1.1h4.6v1.1zm-9.1 0h-4.6v-1.1h4.6v1.1zm-9.1 0h-4.6v-1.1h4.6v1.1zm22.7-1.1h2.3v1.1h-2.3zm-48.6 324h2.3v1.1h-2.3zm32.5 1.1h-5v-1.1h5v1.1zm-10 0h-5v-1.1h5v1.1zm-10.1 0h-5v-1.1h5v1.1zm25.2-1.1h2.3v1.1h-2.3zm19.5-371.1h108.4v1.5H402.9z" class="st0"/>
    <path d="M404 24.2l-6.6-3.8 6.6-3.9zm106.2 0l6.6-3.8-6.6-3.9zm42.3 48.5h1.5v57.7h-1.5z" class="st0"/>
    <path d="M549.4 73.8l3.8-6.6 3.9 6.6zm0 55.5l3.8 6.6 3.9-6.6zm-51 257.7c-2.6-35.5-15.7-212.4-18.1-246.1l1.5-.1c2.5 33.8 15.5 210.6 18.1 246.1l-1.5.1z" class="st0"/>
    <path d="M502.9 385.6l-3.3 6.9-4.3-6.4zm-18-243.9l-4.3-6.3-3.3 6.8z" class="st0"/>
    <path d="M409.3 408.7h1.5v37.8h-1.5z" class="st0" transform="rotate(-87.478 410.1 427.644) scale(.99997)"/>
    <path d="M428.1 424.6l6.4 4.1-6.8 3.5zm-35.6-1.6l-6.8 3.6 6.4 4.1z" class="st0"/>
    <circle cx="457.1" cy="20.4" r="8.7" class="st1"/>
    <path d="M457.1 29.8c-5.2 0-9.4-4.2-9.4-9.4s4.2-9.4 9.4-9.4 9.4 4.2 9.4 9.4-4.2 9.4-9.4 9.4zm0-17.4c-4.4 0-7.9 3.5-7.9 7.9s3.5 7.9 7.9 7.9 7.9-3.5 7.9-7.9c0-4.3-3.6-7.9-7.9-7.9z" class="st0"/>
    <path d="M456.3 14.4h1.5l4.1 10.4h-1.5l-1.1-3.1h-4.4l-1.2 3.1h-1.4l4-10.4zm-1 6.1h3.5l-1.7-4.8-1.8 4.8z"/>
    <circle cx="553.2" cy="101.6" r="8.7" class="st1"/>
    <path d="M553.2 111c-5.2 0-9.4-4.2-9.4-9.4s4.2-9.4 9.4-9.4 9.4 4.2 9.4 9.4c.1 5.2-4.2 9.4-9.4 9.4zm0-17.3c-4.4 0-7.9 3.5-7.9 7.9s3.5 7.9 7.9 7.9 7.9-3.5 7.9-7.9-3.5-7.9-7.9-7.9z" class="st0"/>
    <path d="M556.4 99.5c-.3-1.5-1.5-2.2-2.9-2.2-2.5 0-3.5 2-3.5 4.2 0 2.4 1 4.3 3.5 4.3 1.8 0 2.9-1.3 3-3h1.4c-.3 2.6-1.9 4.2-4.5 4.2-3.2 0-4.8-2.4-4.8-5.4 0-3 1.7-5.5 4.9-5.5 2.2 0 4 1.2 4.3 3.4h-1.4z"/>
    <path d="M402 112.5h110.2v1.5H402z" class="st0"/>
    <path d="M403.1 117.1l-6.6-3.8 6.6-3.8zm107.9 0l6.6-3.8-6.6-3.8z" class="st0"/>
    <circle cx="429.3" cy="113.3" r="8.7" class="st1"/>
    <path d="M429.3 122.7c-5.2 0-9.4-4.2-9.4-9.4s4.2-9.4 9.4-9.4 9.4 4.2 9.4 9.4c.1 5.2-4.2 9.4-9.4 9.4zm0-17.3c-4.4 0-7.9 3.5-7.9 7.9s3.5 7.9 7.9 7.9 7.9-3.5 7.9-7.9-3.5-7.9-7.9-7.9z" class="st0"/>
    <path d="M425.5 108.1h3.8c.9 0 2.1 0 2.7.4.7.4 1.2 1.1 1.2 2.2s-.6 1.9-1.5 2.3c1.3.3 2 1.2 2 2.5 0 1.5-1.1 3-3.2 3h-5v-10.4zm1.4 4.5h2.8c1.6 0 2.2-.6 2.2-1.7 0-1.4-1-1.6-2.2-1.6h-2.8v3.3zm0 4.7h3.5c1.2 0 1.9-.7 1.9-1.9 0-1.4-1.1-1.7-2.3-1.7h-3.2v3.6z"/>
    <path d="M196.4 228.5h313.4v1.5H196.4z" class="st0" transform="rotate(-87.425 353.043 229.255) scale(1.00001)"/>
    <path d="M356.1 73.7l4.1-6.5 3.6 6.8zm-13.8 310.8l3.5 6.8 4.1-6.5z" class="st0"/>
    <circle cx="353" cy="229.3" r="8.7" class="st1"/>
    <path d="M353 238.7c-5.2 0-9.4-4.2-9.4-9.4s4.2-9.4 9.4-9.4 9.4 4.2 9.4 9.4c.1 5.2-4.2 9.4-9.4 9.4zm0-17.4c-4.4 0-7.9 3.5-7.9 7.9s3.5 7.9 7.9 7.9 7.9-3.5 7.9-7.9-3.5-7.9-7.9-7.9z" class="st0"/>
    <path d="M349.2 224.1h3.6c3.2 0 5 1.6 5 4.9 0 3.5-1.5 5.4-5 5.4h-3.6v-10.3zm1.3 9.2h2.3c.9 0 3.5-.3 3.5-4.1 0-2.5-.9-4-3.5-4h-2.3v8.1z"/>
    <circle cx="490.1" cy="263.9" r="8.7" class="st1"/>
    <path d="M490.1 273.4c-5.2 0-9.4-4.2-9.4-9.4s4.2-9.4 9.4-9.4 9.4 4.2 9.4 9.4c0 5.1-4.2 9.4-9.4 9.4zm0-17.4c-4.4 0-7.9 3.5-7.9 7.9s3.5 7.9 7.9 7.9 7.9-3.5 7.9-7.9c0-4.3-3.5-7.9-7.9-7.9z" class="st0"/>
    <path d="M486.5 258.7h7.2v1.2h-5.8v3.3h5.4v1.2h-5.4v3.6h5.8v1.2h-7.2v-10.5z"/>
    <circle cx="410.1" cy="427.6" r="8.7" class="st1"/>
    <path d="M410.1 437.1c-5.2 0-9.4-4.2-9.4-9.4s4.2-9.4 9.4-9.4 9.4 4.2 9.4 9.4c0 5.1-4.2 9.4-9.4 9.4zm0-17.4c-4.4 0-7.9 3.5-7.9 7.9s3.5 7.9 7.9 7.9 7.9-3.5 7.9-7.9c0-4.3-3.5-7.9-7.9-7.9z" class="st0"/>
    <path d="M407.1 422.7h6.8v1.2h-5.4v3.3h4.8v1.2h-4.8v4.8h-1.4v-10.5zm55.6-364.3c-1.7 0-3.1 1.4-3.1 3.1 0 1.7 1.4 3.1 3.1 3.1s3.1-1.4 3.1-3.1c-.1-1.7-1.4-3.1-3.1-3.1zm0 4.7c-.9 0-1.6-.7-1.6-1.6 0-.9.7-1.6 1.6-1.6s1.6.7 1.6 1.6c-.1.9-.8 1.6-1.6 1.6z"/>
    <path d="M517.5 67.2V55.8c0-.4-.3-.8-.8-.8H397.3c-.4 0-.8.3-.8.8v11.4l-.8 23.1-10.7 301c0 .4.3.8.7.8l48.7 2.5c.4 0 .8-.3.8-.7.2-2.5 18.6-248.4 19-254.2.2-3 1.4-3 2.3-3h.8c.9 0 2.1 0 2.3 3 .4 5.8 18.8 251.7 19 254.2 0 .4.4.7.8.7l48.7-2.5c.4 0 .7-.4.7-.8L517.5 67.2zm-85.1-10.6h2v14h-2v-14zm-34.3 0h32.7v9.9h-32.7v-9.9zm0 11.4h28c-.1 11.3-2.8 21.3-28.8 21.5l.8-21.5zm58.2 67.2c-1.5.1-3.3.7-3.5 4.4-.4 5.7-17.8 238.4-19 253.5l-47.2-2.4 10.7-299.6c24.8-.2 30.2-8.9 30.4-23.1h3.2v4.2h5.1V68h20.4v67.2zm0-68.7h-20.4v-9.9h20.4v9.9zm60.5 23c-26-.2-28.7-10.2-28.8-21.5h28l.8 21.5zm-33.5-32.9H516v9.9h-32.7v-9.9zm-3.6 0h2v14h-2v-14zm-21.9 0h20.4v9.9h-20.4v-9.9zm0 11.4h9.6v44.4c0 3.8-3.1 6.8-6.8 6.8h-2.8V68zm22.5 325c-1.1-15.1-18.5-247.8-19-253.5-.2-2.8-1.3-4.2-3.5-4.4v-14.4h2.8c4.6 0 8.4-3.8 8.4-8.4V68h9.2v4.2h5.1V68h3.2c.2 14.1 5.6 22.9 30.4 23.1l10.7 299.6-47.3 2.3z"/>
</svg>
